<?xml version="1.0" standalone="no"?>
<!DOCTYPE svg PUBLIC "-//W3C//DTD SVG 20010904//EN"
 "http://www.w3.org/TR/2001/REC-SVG-20010904/DTD/svg10.dtd">
<svg version="1.0" xmlns="http://www.w3.org/2000/svg"
 width="720.000000pt" height="720.000000pt" viewBox="0 0 720.000000 720.000000"
 preserveAspectRatio="xMidYMid meet">
<metadata>
Created by potrace 1.11, written by Peter Selinger 2001-2013
</metadata>
<g transform="translate(0.000000,720.000000) scale(0.100000,-0.100000)"
fill="#000000" stroke="none">
<path d="M3368 7195 c-2 -2 -37 -6 -78 -9 -408 -28 -918 -171 -1295 -363 -180
-92 -474 -271 -483 -294 -2 -5 -8 -9 -13 -9 -5 0 -17 -6 -26 -14 -10 -8 -54
-43 -98 -77 -157 -122 -348 -304 -475 -449 -36 -41 -68 -77 -71 -80 -17 -14
-181 -238 -235 -320 -60 -93 -194 -317 -194 -326 0 -2 -18 -41 -41 -87 -47
-95 -121 -271 -156 -372 -58 -168 -130 -443 -147 -560 -4 -23 -8 -51 -11 -64
-4 -23 -14 -92 -20 -146 -27 -236 -27 -671 0 -855 3 -19 7 -51 10 -70 6 -41
12 -81 22 -130 3 -19 7 -46 9 -60 2 -14 15 -72 29 -130 14 -58 27 -116 30
-129 14 -58 118 -355 158 -451 328 -776 922 -1416 1672 -1801 145 -74 302
-144 395 -175 25 -8 54 -19 65 -24 34 -16 254 -80 349 -102 204 -46 312 -64
516 -85 81 -8 521 -9 620 -1 75 6 193 21 270 33 14 3 43 7 65 10 109 16 476
112 517 135 10 6 23 10 29 10 19 0 279 106 374 153 50 24 92 44 95 45 24 2
432 257 438 273 2 5 8 9 13 9 5 0 17 6 26 14 10 8 55 43 100 78 323 253 630
598 849 958 57 93 194 356 227 435 62 151 81 200 118 313 52 160 83 283 114
442 47 250 60 400 60 695 -1 247 -8 352 -41 550 -8 50 -16 102 -18 116 -4 28
-18 89 -53 227 -218 851 -760 1608 -1503 2097 -184 121 -393 235 -550 299 -36
15 -74 31 -85 35 -262 110 -627 204 -920 236 -27 4 -70 8 -95 11 -54 6 -557
14 -562 9z"/>
</g>
</svg>
